<?xml version="1.0" encoding="utf-8"?>
<!-- Generator: Adobe Illustrator 24.2.1, SVG Export Plug-In . SVG Version: 6.00 Build 0)  -->
<svg version="1.1" xmlns="http://www.w3.org/2000/svg" xmlns:xlink="http://www.w3.org/1999/xlink" x="0px" y="0px"
	 viewBox="0 0 492 492" style="enable-background:new 0 0 492 492;" xml:space="preserve">
<style type="text/css">
	.st0{display:none;}
	.st1{display:inline;fill-rule:evenodd;clip-rule:evenodd;}
	.st2{opacity:0.5;fill-rule:evenodd;clip-rule:evenodd;fill:#FFFFFF;}
</style>
<g id="Layer_2" class="st0">
	<rect x="-7" class="st1" width="499" height="492"/>
</g>
<g id="Layer_1">
	<path class="st2" d="M122.73,312.87h247.05c16.12,0,31.53-6.23,43.02-17.56c11.38-11.22,17.77-26.37,17.77-42.37
		c0-15.41-5.93-30.05-16.58-41.16c-10.75-11.21-25.31-17.85-40.81-18.69l-0.34-0.02c-1.61-0.25-2.81-1.69-2.72-3.35
		c0.03-0.48,0.19-0.95,0.39-1.38c1.03-2.23,1.68-4.6,2.17-7c0.51-2.51,0.75-5.08,0.75-7.65c0-10.25-4.09-19.96-11.38-27.15
		c-7.37-7.27-17.25-11.26-27.59-11.26c-5.29,0-10.53,1.02-15.4,3.09c-4.85,2.05-9.24,5.09-12.89,8.88l-0.23,0.24
		c-1.24,1.05-3.11,1.02-4.31-0.14c-0.51-0.49-0.81-1.12-0.95-1.8c-3.58-17.87-13.97-33.54-28.12-44.8
		c-14.38-11.44-32.1-17.54-50.47-17.54c-21.34,0-41.72,8.25-56.92,23.24c-15.06,14.86-23.53,34.9-23.53,56.08
		c0,5.11,0.49,10.22,1.48,15.23c0.95,4.82,2.35,9.54,4.18,14.1c-0.12,1.27-0.76,4.18-1.55,4.69c-0.78,0.32-1.63,0.29-2.41,0
		c-3.26-1.21-6.64-2.05-10.06-2.64c-3.49-0.6-7.03-0.9-10.58-0.9c-16.13,0-31.53,6.23-43.02,17.56
		c-11.38,11.23-17.77,26.37-17.77,42.37s6.39,31.15,17.77,42.37C91.2,306.64,106.61,312.87,122.73,312.87z"/>
</g>
</svg>
