<?xml version="1.0" encoding="utf-8"?>
<!-- Generator: Adobe Illustrator 24.2.1, SVG Export Plug-In . SVG Version: 6.00 Build 0)  -->
<svg version="1.1" xmlns="http://www.w3.org/2000/svg" xmlns:xlink="http://www.w3.org/1999/xlink" x="0px" y="0px"
	 viewBox="0 0 492 492" style="enable-background:new 0 0 492 492;" xml:space="preserve">
<style type="text/css">
	.st0{display:none;}
	.st1{display:inline;fill-rule:evenodd;clip-rule:evenodd;fill:#231F20;}
	.st2{display:inline;fill-rule:evenodd;clip-rule:evenodd;}
	.st3{opacity:0.36;}
	.st4{opacity:0.5;fill-rule:evenodd;clip-rule:evenodd;fill:#FFFFFF;enable-background:new    ;}
</style>
<g id="Layer_2" class="st0">
	<rect x="-38" y="-23" class="st1" width="562" height="545"/>
</g>
<g id="Layer_1">
	<g id="Layer_2_1_" class="st0">
		<rect x="-7" class="st2" width="499" height="492"/>
	</g>
	<g id="Layer_1_1_" class="st3">
		<path class="st4" d="M122.7,312.9h247c16.1,0,31.5-6.2,43-17.6c11.4-11.2,17.8-26.4,17.8-42.4c0-15.4-5.9-30.1-16.6-41.2
			c-10.8-11.2-25.3-17.9-40.8-18.7l-0.3,0c-1.6-0.2-2.8-1.7-2.7-3.4c0-0.5,0.2-0.9,0.4-1.4c1-2.2,1.7-4.6,2.2-7
			c0.5-2.5,0.8-5.1,0.8-7.6c0-10.2-4.1-20-11.4-27.1c-7.4-7.3-17.2-11.3-27.6-11.3c-5.3,0-10.5,1-15.4,3.1
			c-4.9,2.1-9.2,5.1-12.9,8.9l-0.2,0.2c-1.2,1.1-3.1,1-4.3-0.1c-0.5-0.5-0.8-1.1-1-1.8c-3.6-17.9-14-33.5-28.1-44.8
			c-14.4-11.4-32.1-17.5-50.5-17.5c-21.3,0-41.7,8.2-56.9,23.2c-15.1,14.9-23.5,34.9-23.5,56.1c0,5.1,0.5,10.2,1.5,15.2
			c0.9,4.8,2.4,9.5,4.2,14.1c-0.1,1.3-0.8,4.2-1.6,4.7c-0.8,0.3-1.6,0.3-2.4,0c-3.3-1.2-6.6-2.1-10.1-2.6c-3.5-0.6-7-0.9-10.6-0.9
			c-16.1,0-31.5,6.2-43,17.6c-11.4,11.2-17.8,26.4-17.8,42.4s6.4,31.1,17.8,42.4C91.2,306.6,106.6,312.9,122.7,312.9z"/>
	</g>
</g>
</svg>
