<?xml version="1.0" encoding="utf-8"?>
<svg xmlns="http://www.w3.org/2000/svg" xmlns:xlink="http://www.w3.org/1999/xlink" version="1.1" id="Layer_1" x="0px" y="0px" viewBox="0 2 98 98" style="enable-background:new 0 2 98 98;" xml:space="preserve" width="512" height="512">
<style type="text/css">
	.st0{fill:url(#SVGID_1_);}
	.st1{fill:url(#SVGID_2_);}
</style>
<g>
	
		<linearGradient id="SVGID_1_" gradientUnits="userSpaceOnUse" x1="49" y1="94.75" x2="49" y2="16.3404" gradientTransform="matrix(1 0 0 -1 0 104)">
		<stop offset="0" style="stop-color:#00EFD1"/>
		<stop offset="1" style="stop-color:#00ACEA"/>
	</linearGradient>
	<path class="st0" d="M77.8,46.7c0-0.1-0.1-0.2-0.2-0.2L51.4,9.8C50.9,9,50,8.5,49,8.5S47.1,9,46.6,9.8L20.4,46.5   c-0.1,0.1-0.1,0.2-0.2,0.2c-5.4,9.3-5.3,20.6,0.2,30.1c6,10.3,16.9,16.7,28.6,16.7s22.6-6.4,28.6-16.7C83.1,67.2,83.2,56,77.8,46.7   z M72.4,73.8C67.5,82.3,58.6,87.5,49,87.5s-18.5-5.2-23.4-13.7c-4.5-7.8-4.6-16.5-0.3-24L49,16.7l23.7,33.2   C77,57.3,76.8,66.1,72.4,73.8z"/>
	
		<linearGradient id="SVGID_2_" gradientUnits="userSpaceOnUse" x1="56.75" y1="94.75" x2="56.75" y2="16.3404" gradientTransform="matrix(1 0 0 -1 0 104)">
		<stop offset="0" style="stop-color:#00EFD1"/>
		<stop offset="1" style="stop-color:#00ACEA"/>
	</linearGradient>
	<path class="st1" d="M64.7,57.9c-1.7,0-3,1.3-3,3c0,7.1-5.8,12.9-12.9,12.9c-1.7,0-3,1.3-3,3s1.3,3,3,3c10.4,0,18.9-8.5,18.9-18.9   C67.7,59.2,66.4,57.9,64.7,57.9z"/>
</g>
</svg>
